<?xml version="1.0" encoding="UTF-8"?>
<svg id="Layer_1" xmlns="http://www.w3.org/2000/svg" xmlns:xlink="http://www.w3.org/1999/xlink" viewBox="0 0 71.97 81.37">
  <defs>
    <style>
      .cls-1 {
        fill: none;
      }

      .cls-2 {
        fill: #231f20;
      }

      .cls-3 {
        fill: #67308f;
      }

      .cls-4 {
        clip-path: url(#clippath);
      }
    </style>
    <clipPath id="clippath">
      <path class="cls-1" d="M5.83-2v81.39h52.36V-2H5.83ZM28.27,73.92c-1.22.36-2.4.9-3.53,1.63l-3.59,2.54c-.17.11-.36.2-.53.3h-4.14l-.73-.59c1.32-.53,2.69-1.23,4.12-2.09,1.42-.94,2.25-1.77,2.46-2.5.05-.81-.77-1.52-2.46-2.14-4.82-1.54-9.16-1.75-13.03-.65v-3.59l2.77-1.46c2.02-.99,3.9-1.53,5.65-1.61l11.18,1.74c.64.03,1.25,0,1.83-.07v8.49Z"/>
    </clipPath>
  </defs>
  <path class="cls-2" d="M27.27,9.83v19.09h19.32v9.83h-19.32v38.64H7.83V0h48.36v9.83h-28.92Z"/>
  <path class="cls-3" d="M5.9,81.28c-2.21-.38-3.85-1.35-4.92-2.91-.83-1.56-1.13-3.26-.89-5.09.46-1.99,1.74-3.63,3.83-4.92l5.69-2.99c2.02-.99,3.9-1.53,5.65-1.61l11.18,1.74c2.77.14,4.94-.74,6.5-2.62,1.91-2.5,3.27-4.91,4.08-7.23.7-2.5-.57-4.39-3.79-5.65-2.83-1.1-5.65-3.24-8.48-6.42-1.8-2.1-2.45-3.98-1.94-5.65.73-1.64,1.86-2.93,3.39-3.87,1.27-.57,2.5-.67,3.72-.32,1.18.51,2.13,1.33,2.83,2.46.46.86.28,3.01-.53,6.46-.4,2.75.62,4.67,3.07,5.77,1.88.54,3.35-.05,4.4-1.77.38-.86.81-3.5,1.29-7.91.21-1.59.74-3.53,1.57-5.81l1.98-6.54c.67-2.15,1.68-3.85,3.03-5.09l4.04-2.79,5.37-2.83c2.91-1.05,5.76-1.48,8.56-1.29,2.66.35,4.45,1.76,5.37,4.24,1.59,5.09,1.45,9.67-.4,13.77-2.37,4.9-4.56,8.25-6.58,10.05l-4.89,3.72c-2.58,2.02-4.53,3.3-5.85,3.83l-7.43,2.02c-1.83.75-3.39,2.37-4.68,4.85l-3.96,6.02c-.59.86-.93,1.62-1.01,2.26.08.78.64,1.44,1.7,1.98,1.72.67,4.59,1.08,8.6,1.21,2.8.11,5.53.54,8.19,1.29,3.93,1.08,7.58,1.27,10.94.57l3.35-.77c.38.03.67.11.89.24.21.27.31.7.28,1.29-.21,2.15-1.09,4.17-2.62,6.06-1.56,1.7-3.67,2.26-6.34,1.7l-9.61-1.94-9.57-1.57c-4.36-1.16-7.72-1.76-10.09-1.82-2.53.05-4.89.78-7.06,2.18l-3.59,2.54c-1.75,1.1-3.69,1.91-5.81,2.42-3.74.75-6.89,1.01-9.45.77h0ZM19.86,71.07c-4.95-1.59-9.41-1.77-13.36-.57-2.16.81-3.33,2.07-3.51,3.79.08,1.75,1.06,3.11,2.95,4.08,3.79,1.53,8.44.64,13.93-2.66,1.42-.94,2.25-1.77,2.46-2.5.05-.81-.77-1.52-2.46-2.14ZM63.86,35.39c2.5-4.87,2.79-9.57.85-14.09-.86-1.7-1.9-2.74-3.11-3.15-1.24-.24-2.5.11-3.79,1.05-1.94,1.62-3.57,3.94-4.89,6.98l-2.62,8.88-4.16,9.69c-.4,1.43-.43,2.49-.08,3.19.49.62,1.35.86,2.58.73,2.77-.51,5.64-2.15,8.6-4.92,2.88-2.8,5.09-5.58,6.62-8.36h0Z"/>
  <g class="cls-4">
    <path class="cls-2" d="M27.27,9.83v19.09h19.32v9.83h-19.32v38.64H7.83V0h48.36v9.83h-28.92Z"/>
  </g>
</svg>