<?xml version="1.0" encoding="UTF-8"?>
<svg id="Layer_1" xmlns="http://www.w3.org/2000/svg" xmlns:xlink="http://www.w3.org/1999/xlink" viewBox="0 0 1673.71 359.14">
  <defs>
    <style>
      .cls-1 {
        fill: none;
      }

      .cls-2 {
        fill: #662d91;
      }

      .cls-3 {
        fill: #231f20;
      }

      .cls-4 {
        clip-path: url(#clippath);
      }
    </style>
    <clipPath id="clippath">
      <path class="cls-1" d="M-2,152.01v209.14h1677.71v-209.14H-2ZM87.73,234.15h-19.32c-1.08-3.09-1.21-6.04-.36-8.79l.04-.11c2.27-5.13,5.85-9.22,10.65-12.17l.12-.06c2.46-1.1,4.95-1.66,7.38-1.66.5,0,1,.03,1.49.08v22.72ZM262.73,184.79c-5.18-1.99-9.65-3-13.27-3-.42,0-.83.01-1.23.04-4.37.63-10.15,2.61-17.11,5.89-2.87,1.31-4.73,1.96-5.84,2.05l-.4-.05c-.9-.3-1.42-1.09-1.42-2.17l.06-.33,1.1-3.17.06-.14,9.65-18.2.07-.11c4.23-5.93,9.66-9.15,16.14-9.58h.02c3.73,0,7.8.54,12.16,1.6v27.17ZM333.6,234.15h-10.08c-1.22-8.83-.85-18.82,1.1-29.75h10.29c-2.49,10.83-2.93,20.83-1.31,29.75ZM434.1,234.15h-20.83c0-8.39-.94-16.21-2.79-23.26-.69-2.22-1.54-4.4-2.51-6.52v-38.6l.37.07.25.23,11.62,11.62c4.85,5.6,8.25,12.06,10.15,19.26l4.53,23.52c.47,4.88.19,9.45-.81,13.69ZM641.78,178.49c-8.44-2.26-16.22-3.64-23.14-4.11-.49-.01-1.01-.02-1.54-.02-5.53,0-11.1.78-16.56,2.3l-17.1,6.19c-.08.04-.33.17-.46.24v-13.81c5.44-3.41,11.69-6.57,18.62-9.4,10.93-4.04,22.08-6.07,33.16-6.07,2.32,0,4.68.11,7.02.28v24.4ZM758.33,201.52c-.86,6.07-.86,12.08,0,17.99v14.64h-5.47c-.37-1.06-.72-2.09-1.01-3.08-4.85-17.25-4.46-32.56,1.14-45.5,1.29-2.71,2.87-5.37,4.71-7.95l.63-.21v24.11Z"/>
    </clipPath>
  </defs>
  <g>
    <path class="cls-2" d="M17.83,356.82c-6.68-1.14-11.64-4.07-14.9-8.79-2.52-4.72-3.42-9.85-2.69-15.39,1.38-6.02,5.25-10.99,11.6-14.9l17.22-9.04c6.11-3.01,11.8-4.64,17.1-4.88l33.83,5.25c8.39.41,14.94-2.24,19.66-7.94,5.78-7.57,9.89-14.86,12.33-21.86,2.12-7.57-1.71-13.27-11.48-17.1-8.55-3.34-17.1-9.81-25.65-19.42-5.46-6.35-7.41-12.05-5.86-17.1,2.2-4.97,5.62-8.87,10.26-11.72,3.83-1.71,7.57-2.03,11.24-.98,3.58,1.55,6.43,4.03,8.55,7.45,1.38,2.61.85,9.12-1.59,19.54-1.22,8.31,1.87,14.13,9.28,17.46,5.7,1.63,10.14-.16,13.31-5.37,1.14-2.6,2.44-10.58,3.91-23.94.65-4.8,2.24-10.67,4.76-17.59l5.98-19.79c2.03-6.51,5.09-11.64,9.16-15.39l12.21-8.43,16.24-8.55c8.79-3.18,17.42-4.48,25.89-3.91,8.06,1.06,13.47,5.33,16.24,12.82,4.8,15.39,4.4,29.27-1.22,41.65-7.17,14.82-13.8,24.96-19.91,30.41l-14.78,11.24c-7.82,6.11-13.72,9.97-17.71,11.6l-22.47,6.11c-5.54,2.28-10.26,7.17-14.17,14.66l-11.97,18.2c-1.79,2.61-2.81,4.89-3.05,6.84.24,2.36,1.95,4.36,5.13,5.98,5.21,2.04,13.88,3.26,26.01,3.66,8.47.33,16.73,1.63,24.79,3.91,11.89,3.26,22.92,3.83,33.1,1.71l10.14-2.32c1.14.08,2.03.33,2.69.73.65.81.94,2.12.85,3.91-.65,6.51-3.3,12.62-7.94,18.32-4.72,5.13-11.11,6.84-19.17,5.13l-29.07-5.86-28.94-4.76c-13.19-3.5-23.37-5.33-30.53-5.5-7.65.16-14.78,2.36-21.37,6.59l-10.87,7.69c-5.29,3.34-11.16,5.78-17.59,7.33-11.32,2.28-20.84,3.05-28.58,2.32ZM60.09,325.92c-14.98-4.8-28.46-5.37-40.42-1.71-6.52,2.44-10.06,6.27-10.63,11.48.24,5.29,3.22,9.4,8.92,12.33,11.48,4.64,25.53,1.95,42.13-8.06,4.31-2.85,6.8-5.37,7.45-7.57.16-2.44-2.32-4.6-7.45-6.47ZM193.21,217.96c7.57-14.74,8.43-28.94,2.56-42.62-2.61-5.13-5.74-8.3-9.4-9.53-3.75-.73-7.57.33-11.48,3.18-5.86,4.89-10.79,11.93-14.78,21.13l-7.94,26.87-12.58,29.31c-1.22,4.32-1.3,7.53-.24,9.65,1.47,1.87,4.07,2.61,7.82,2.2,8.39-1.55,17.06-6.51,26.01-14.9,8.71-8.47,15.39-16.89,20.03-25.28Z"/>
    <path class="cls-2" d="M273.57,345.22c8.14-2.03,13.88-7.08,17.22-15.14,3.99-11.07,4.72-23.49,2.2-37.25l-5.86-34.56-4.15-25.04c-.24-4.07-.04-7.9.61-11.48,1.3-5.05,3.83-10.42,7.57-16.12,2.6-3.74,4.07-6.31,4.4-7.69-.08-1.79-2-3.34-5.74-4.64l-23.08-7.94c-7.57-3.34-13.76-4.84-18.56-4.52-4.56.65-10.38,2.65-17.46,5.98-2.69,1.22-4.52,1.87-5.5,1.95-.49-.16-.73-.57-.73-1.22l1.1-3.18,9.65-18.2c4.07-5.7,9.2-8.75,15.39-9.16,6.19,0,13.31,1.51,21.37,4.52l20.15,8.92,24.3,6.47c2.6.81,4.6,1.59,5.98,2.32,1.3,1.06,10,1.63,9.19,3.09l-21.16,13.76c-3.5,5.37-4.23,21.62-2.2,48.73l5.74,31.75c3.09,11.81,4.11,22.55,3.05,32.24-1.3,8.88-4.89,16.61-10.75,23.21l-10.87,10.26c-6.19,5.05-12.05,8.51-17.59,10.38"/>
    <path class="cls-2" d="M423.18,336.06l-24.55-7.94c-9.28-2.69-19.26-1.59-29.92,3.3l-6.11,3.18h-.37c-.08-.08-.12-.24-.12-.49l1.59-2.56,9.28-13.19,10.99-10.38c5.37-4.64,9.24-9.16,11.6-13.56,1.3-2.93,1.75-5.5,1.34-7.69-.98-1.95-2.85-3.3-5.62-4.03l-35.3-4.52c-11.72-7.16-20.6-16.24-26.62-27.24-6.76-14.25-7.41-32.61-1.95-55.08,3.26-10.99,12.42-22.55,27.48-34.68,9.69-7.16,21.33-8.96,34.93-5.37,6.27,1.87,12.29,5.54,18.08,10.99l11.6,11.6c4.72,5.46,8.02,11.72,9.89,18.81l4.52,23.45c.57,5.94,0,11.44-1.71,16.49l-9.16,21.98c-.49,3.66.08,6.35,1.71,8.06,1.79,1.14,3.99.9,6.6-.73,3.09-2.77,6.15-8.79,9.16-18.08,1.38-3.91,5.9-9.44,13.56-16.61,4.31-4.4,8.47-13.23,12.46-26.5,1.38-4.23,4.52-10.67,9.4-19.3l10.87-23.08c4.23-6.76,9.57-8.51,16-5.25l22.72,15.02c7.73,3.83,11.15,8.43,10.26,13.8l-9.04,21.37c-2.52,5.78-4.07,13.27-4.64,22.47l-2.08,33.22,2.81,23.82,4.89,21.49c2.28,5.37,5.58,7.98,9.89,7.82,2.77-.49,6.92-2.16,12.46-5.01,2.2-1.06,3.66-1.55,4.4-1.47.65.57.28,2.2-1.1,4.88l-13.92,20.76c-5.29,6.19-10.63,7.74-16,4.64-5.21-3.74-9.89-9.69-14.04-17.83l-7.33-20.76c-3.34-11.8-5.13-22.11-5.37-30.9l1.1-24.06c.41-14.17,2.08-25.04,5.01-32.61,3.91-9.93,4.89-17.14,2.93-21.62-2.28-3.5-5.42-5.9-9.4-7.21-6.27-1.06-11.24,2.2-14.9,9.77l-12.09,21.86c-2.28,4.15-3.5,8.22-3.66,12.21,0,2.44.9,7.33,2.69,14.66.65,3.58-3.26,11.48-11.72,23.69-7.74,12.54-9.65,28.94-5.74,49.22l6.84,19.79c-1.22,4.4-4.15,10.34-8.79,17.83-1.95,3.01-3.38,4.56-4.27,4.64-.57-.33-1.47-2.2-2.69-5.62-3.42-8.71-9.69-14.53-18.81-17.46ZM394.24,275.48c10.01-2.03,16.08-8.47,18.2-19.3,2.77-17.34,2.44-32.53-.98-45.55-3.91-12.62-11.81-22.92-23.69-30.9-11.24-6.84-22.8-7.98-34.68-3.42-8.39,3.83-14.29,11.24-17.71,22.23-5.05,17.67-5.01,33.02.12,46.04,5.05,11.72,13.43,20.32,25.16,25.77,11.48,4.89,22.67,6.59,33.59,5.13ZM444.92,281.83c-.98-4.56-2.48-7.61-4.52-9.16-2.12-1.06-5.09-.77-8.92.85-6.92,3.58-15.35,9.4-25.28,17.46-3.42,2.93-5.46,5.46-6.11,7.57-.33,2.44,1.22,5.01,4.64,7.69,7.08,4.97,14.49,8.1,22.23,9.4,7.16.65,12.33-2.03,15.51-8.06,3.09-7.49,3.91-16.08,2.44-25.77Z"/>
    <path class="cls-2" d="M620.91,333.13c-5.78-3.09-12.58-4.72-20.4-4.88-6.92.24-13.6,1.87-20.03,4.88l-7.08,3.91h-.37c-.16-.08-.24-.24-.24-.49l1.47-3.54,11.6-18.93c4.15-4.48,8.96-6.72,14.41-6.72l20.15,4.89c6.27,1.22,10.34-.37,12.21-4.76,1.46-5.13,1.46-11.03,0-17.71-1.95-6.19-5.78-9.4-11.48-9.65-18.56.41-30.25-1.02-35.05-4.27-11.07-8.38-19.09-16.45-24.06-24.18-8.79-15.79-9.81-33.83-3.05-54.1,5.7-15.14,20.03-27.4,42.99-36.76,22.06-8.14,44.41-8.02,67.05.37,15.06,6.19,26.46,11.93,34.2,17.22,3.74,2.77,8.38,7.41,13.92,13.92l15.51,18.2c2.85,4.72,5.62,11.2,8.31,19.42l5.74,20.76c1.63,10.67.77,21.94-2.57,33.83l-8.55,21.49c-3.91,8.47-7.98,15.06-12.21,19.79l-26.26,19.3c-8.39,5.29-20.76,5.09-37.13-.61-5.86-1.95-10.54-1.79-14.04.49-2.44,2.2-4.52,5.37-6.23,9.53-.9,2.36-1.51,3.66-1.83,3.91-.33,0-.98-1.43-1.96-4.27-3.42-9.61-8.43-16.61-15.02-21.01ZM716.05,321.65c4.89-4.64,9.45-13.76,13.68-27.36,3.83-12.62,2.89-26.46-2.81-41.52-4.56-12.21-7.86-19.91-9.89-23.08l-14.78-16.49-14.04-13.68-19.42-11.72-21.49-8.79c-10.59-3.18-20.11-5.05-28.58-5.62-6.19-.16-12.34.61-18.44,2.32l-17.22,6.23c-7.9,3.83-13.31,9.57-16.24,17.22-5.86,17.26-6.15,31.47-.85,42.62,6.27,11.48,13.15,19.58,20.64,24.3,8.3,4.64,16.98,7.37,26.01,8.18,5.62.16,8.87-1.67,9.77-5.5l.49-9.89c.08-.32,2.64-5.74,7.69-16.24l5.5-32.12c.81-3.5,1.79-5.82,2.93-6.96.65-.41,1.3-.37,1.95.12.49.81.89,1.95,1.22,3.42l1.22,35.05c4.4,12.46,6.23,19.46,5.5,21.01l-9.53,14.66c-1.55,3.66-2.4,7.49-2.56,11.48l2.56,17.46c1.87,7.98,5.82,13.27,11.85,15.88l27.97,6.96c7.49,1.46,13.92,1.67,19.3.61,6.68-1.55,12.54-4.4,17.59-8.55Z"/>
    <path class="cls-2" d="M840.25,346.32c-12.13-6.92-26.91-9.57-44.33-7.94-3.91.24-6.55-.08-7.94-.98-.98-1.22-.77-3.21.61-5.98,2.77-4.23,11.85-10.99,27.23-20.27,4.97-3.25,8.18-7.25,9.65-11.97,1.06-5.29-.73-9.57-5.37-12.82l-21.86-6.35c-4.97-1.79-10.14-5.62-15.51-11.48l-13.43-12.09c-7.82-6.27-13.31-14.82-16.49-25.65-4.8-17.1-4.44-32.04,1.1-44.82,4.15-8.71,10.5-15.92,19.05-21.62,11.97-7.49,24.75-9,38.35-4.52,10.91,3.99,18.52,8.55,22.84,13.68,2.2,2.77,5.45,9.49,9.77,20.15,1.3,2.77,2.52,4.64,3.66,5.62,1.55.49,3.3-.49,5.25-2.93l9.53-17.1c2.93-4.8,6.55-9.08,10.87-12.82,5.29-4.31,10.38-7.45,15.27-9.4,5.78-1.87,10.71-1.18,14.78,2.08l20.03,21.86c7.73,3.5,12.05,5.58,12.95,6.23,3.34,3.42,3.46,7.45.37,12.09l-19.66,17.46c-4.8,5.54-4.76,10.55.12,15.02l17.46,9.89c7.33,4.64,12.54,11.32,15.63,20.03,4.07,13.03,2.85,25.65-3.66,37.86-3.66,6.43-9.45,13.15-17.34,20.15l-14.78,10.62-16.61,7.82-20.76,13.31c-8.96,5.37-21.21,3.66-36.76-5.13ZM831.58,228.46c-1.14-9.04-3.34-17.14-6.59-24.3l-9.65-16.37c-4.8-6.27-10.42-10.71-16.85-13.31-7.17-2.52-14.21-3.22-21.13-2.08-7.57,1.79-12.99,6.47-16.24,14.04-6.43,17.67-5.9,34.73,1.59,51.17,6.02,11.97,15.83,21.98,29.43,30.04,10.91,6.27,19.54,10.42,25.89,12.46,3.74.98,6.84,1.06,9.28.24,2.69-1.47,4.48-4.48,5.37-9.04,1.38-8.96,1.02-23.24-1.1-42.87ZM905.59,220.4c4.64-7.16,5.45-14.08,2.44-20.76-4.48-8.22-10.79-14.7-18.93-19.42-7.82-3.91-14.62-2.52-20.4,4.15-6.43,8.3-10.83,17.59-13.19,27.85l-3.54,26.01-7.57,31.75c-.24,3.83,0,6.72.73,8.67.49.65,1.02,1.02,1.59,1.1.73-.32,1.55-1.14,2.44-2.44l7.45-16.37c3.42-4.8,7.69-6.76,12.82-5.86,5.54,1.79,9.36,5.5,11.48,11.11,2.44,9.2-1.95,15.75-13.19,19.66-18.97,5.62-29.76,9.49-32.36,11.6-5.54,5.37-7,10.75-4.4,16.12,2.6,3.99,8.51,7.78,17.71,11.36,22.31,8.71,39.24,10.46,50.81,5.25,9.61-4.97,18.16-13.23,25.65-24.79,6.02-10.42,5.98-21.82-.12-34.2-3.75-6.84-8.51-12.01-14.29-15.51-4.32-2.28-11.11-4.56-20.4-6.84-3.5-.98-5.74-1.91-6.72-2.81-.65-1.22.37-3.13,3.05-5.74l18.93-19.91Z"/>
    <path class="cls-2" d="M974.23,356.82c-6.68-1.14-25.17-3.25-28.43-7.97-2.53-4.72-3.42-9.85-2.69-15.39,1.38-6.02,5.25-10.99,11.6-14.9l17.22-9.04c6.11-3.01,11.8-4.64,17.1-4.88l33.83,5.25c8.38.41,14.94-2.24,19.66-7.94,5.78-7.57,9.89-14.86,12.33-21.86,2.12-7.57-1.71-13.27-11.48-17.1-8.55-3.34-17.1-9.81-25.65-19.42-5.46-6.35-7.41-12.05-5.86-17.1,2.2-4.97,5.62-8.87,10.26-11.72,3.83-1.71,7.57-2.03,11.24-.98,3.58,1.55,6.43,4.03,8.55,7.45,1.38,2.61.85,9.12-1.59,19.54-1.22,8.31,1.87,14.13,9.28,17.46,5.7,1.63,10.14-.16,13.31-5.37,1.14-2.6,2.44-10.58,3.91-23.94.65-4.8,2.24-10.67,4.76-17.59l5.98-19.79c2.03-6.51,5.09-11.64,9.16-15.39l12.21-8.43,16.24-8.55c8.79-3.18,17.42-4.48,25.89-3.91,8.06,1.06,13.47,5.33,16.24,12.82,4.8,15.39,4.4,29.27-1.22,41.65-7.17,14.82-13.8,24.96-19.91,30.41l-14.78,11.24c-7.82,6.11-13.72,9.97-17.71,11.6l-22.47,6.11c-5.54,2.28-10.26,7.17-14.17,14.66l-11.97,18.2c-1.79,2.61-2.81,4.89-3.05,6.84.24,2.36,1.95,4.36,5.13,5.98,5.21,2.04,13.88,3.26,26.01,3.66,8.47.33,16.73,1.63,24.79,3.91,11.89,3.26,22.92,3.83,33.1,1.71l10.14-2.32c1.14.08,2.03.33,2.69.73.65.81.93,2.12.85,3.91-.65,6.51-3.3,12.62-7.94,18.32-4.72,5.13-11.11,6.84-19.17,5.13l-29.07-5.86-28.95-4.76c-13.19-3.5-23.37-5.33-30.53-5.5-7.65.16-14.78,2.36-21.37,6.59l-10.87,7.69c-5.29,3.34-11.16,5.78-17.59,7.33-11.32,2.28-7.31,2.23-15.05,1.5ZM1002.95,326.74c-14.98-4.8-14.93-6.19-26.9-2.53-6.51,2.44-10.06,6.27-10.62,11.48.24,5.29,3.21,9.4,8.92,12.33,11.48,4.64,12,2.78,28.61-7.24,4.31-2.85,6.8-5.37,7.45-7.57.16-2.44-2.32-4.6-7.45-6.47ZM1136.08,218.78c7.57-14.74,8.43-28.94,2.56-42.62-2.61-5.13-5.74-8.3-9.4-9.53-3.75-.73-7.57.33-11.48,3.18-5.86,4.89-10.79,11.93-14.78,21.13l-7.94,26.87-12.58,29.31c-1.22,4.32-1.3,7.53-.24,9.65,1.46,1.87,4.07,2.61,7.82,2.2,8.38-1.55,17.06-6.51,26.01-14.9,8.71-8.47,15.39-16.89,20.03-25.28Z"/>
    <path class="cls-2" d="M1216.31,337.37c-21.01-9.28-35.7-23.37-44.09-42.26-6.76-17.18-7.41-35.62-1.95-55.32,2.93-9.44,10.22-20.72,21.86-33.83,7-7.65,13.31-13.03,18.93-16.12,10.91-5.37,16.98-8.63,18.2-9.77l11.72-17.83c1.38-2.03,2.57-3.46,3.54-4.27.49-.16.93-.2,1.34-.12.49.57.85,1.47,1.1,2.69l-.85,21.86c0,3.1.41,5.09,1.22,5.98,1.06.41,2.73-.12,5.01-1.59l22.23-15.88c8.47-5.62,15.51-8.1,21.13-7.45,1.71.41,10.18,4.36,25.4,11.85l20.52,8.06c5.45,2.85,11.28,7.69,17.46,14.53,7.33,8.22,12.05,14.98,14.17,20.27,3.58,10.18,4.07,21.82,1.47,34.93l-7.45,22.47-10.01,18.93-15.27,19.42c-5.7,6.11-12.91,11.11-21.62,15.02-7.25,3.09-12.91,6.47-16.98,10.14l-10.87,10.62c-4.72,3.42-10.06,5.29-16,5.62-12.29-.08-32.36-6.06-60.21-17.95ZM1228.04,242.84c-.98-4.31-3.38-9.65-7.21-16-3.01-5.05-3.46-9.61-1.34-13.68l10.01-16.49c.81-2.77.73-4.97-.24-6.59-1.38-1.3-3.46-1.79-6.23-1.47-7,1.55-13.68,6.31-20.03,14.29l-12.7,20.15c-6.27,11.64-8.79,23.69-7.57,36.15.98,7,2.73,14.04,5.25,21.13,2.6,6.35,5.86,11.85,9.77,16.49,11.48,12.62,26.38,22.27,44.7,28.94,23.61,8.22,43.03,8.71,58.26,1.47,7.57-3.99,15.1-9.77,22.59-17.34,5.05-5.21,9.2-10.79,12.46-16.73l8.67-23.2c4.48-16.61,4.35-30.25-.37-40.91-3.83-7.41-10.5-15.63-20.03-24.67-6.19-5.37-14.45-9.53-24.79-12.46l-22.84-5.62c-19.87-2.44-30.94,2.65-33.22,15.27-.08,2.77,1.34,6.84,4.27,12.21,1.63,3.42,1.34,6.96-.85,10.63l-8.92,11.97c-2.61,4.72-3.79,9.89-3.54,15.51l5.37,36.64c-.41,5.21-1.63,8.26-3.66,9.16-2.2.08-4.36-2.03-6.47-6.35l-1.34-48.49Z"/>
    <path class="cls-2" d="M1426.74,345.55c-3.58,1.71-5.9,2.56-6.96,2.56-.41-.16-.61-.53-.61-1.1.24-.73.69-1.67,1.34-2.81l13.56-16.61,11.48-10.62c5.13-4.64,8.75-9,10.87-13.07,1.14-2.85,1.42-5.25.86-7.21-1.06-1.87-3.05-3.3-5.98-4.27l-28.21-3.05c-5.05-1.38-10.55-4.27-16.49-8.67l-11.72-8.67c-5.78-4.48-9.97-9.57-12.58-15.27-3.01-7.49-5.01-15.88-5.98-25.16-.41-5.29-.12-10.3.86-15.02,1.54-6.11,4.44-12.58,8.67-19.42,4.96-7.41,10.42-13.96,16.37-19.66,6.19-5.86,12.29-9.97,18.32-12.33,3.99-1.3,8.1-1.91,12.33-1.83,5.45.49,12.05,2.32,19.79,5.5,7.98,3.34,13.84,7.41,17.59,12.21l10.38,16.85c2.28,2.85,4.48,4.52,6.6,5.01,2.12.08,4.27-1.02,6.47-3.3l17.71-26.62c8.14-9.53,16.2-12.66,24.18-9.4,4.48,2.28,8.83,6.15,13.07,11.6,3.99,5.46,6.88,11.44,8.67,17.95l4.88,24.67c.81,3.42,1.63,5.82,2.44,7.21.57.49,1.18.65,1.83.49.65-.49,1.38-1.3,2.2-2.44l12.21-22.59,11.24-16.24c6.19-10.09,10.91-16.69,14.17-19.79,5.05-4.31,10.54-3.99,16.49.98l23.08,15.14c6.35,3.75,8.96,8.55,7.82,14.41l-8.3,21.25c-2.04,6.19-3.66,14.37-4.89,24.55-2.52,22.07-2.56,40.63-.12,55.69,3.18,19.22,8.67,29.15,16.49,29.8,3.26-.08,7.12-1.06,11.6-2.93,2.52-1.06,4.15-1.59,4.89-1.59.32.16.45.57.37,1.22l-1.47,3.3c-5.13,9.04-10.14,16.16-15.02,21.37-5.46,5.29-11.56,6.07-18.32,2.32-6.76-4.4-11.81-10.95-15.14-19.66l-8.55-28.7c-2.12-8.96-2.49-22.8-1.1-41.52l2.69-26.14,7.08-20.76c1.63-6.92.37-12.38-3.79-16.37-3.5-2.6-7.53-4.07-12.09-4.4-4.88.24-9.12,2.16-12.7,5.74l-10.38,16-12.21,20.27c-2.2,5.46-4.32,13.8-6.35,25.04l-3.91,26.01-1.22,54.71c-2.61,6.84-7,11.64-13.19,14.41-2.93.98-5.46,1.02-7.57.12-2.2-1.55-3.5-4.4-3.91-8.55l3.66-27.85.61-29.8-1.46-69c-.9-12.13-4.27-21.09-10.14-26.87-7.25-6.11-13.96-6.35-20.15-.73-4.32,4.64-8.55,10.99-12.7,19.05-2.52,5.21-4.4,13.23-5.62,24.06l-8.18,32.73c-.81,4.4-.37,7.37,1.34,8.92,2.12,1.06,4.6.45,7.45-1.83,1.06-.98,4.31-8.39,9.77-22.23,2.6-5.37,6.39-8.1,11.36-8.18,6.02.73,10.79,3.91,14.29,9.53,3.26,6.59,1.42,12.62-5.5,18.08-5.7,3.91-14.45,7.57-26.26,10.99-7.49,2.12-13.31,4.89-17.46,8.3-6.27,5.37-11.72,11.4-16.37,18.07-1.87,3.01-2.65,5.46-2.32,7.33.81,2.04,3.3,3.87,7.45,5.5l33.71,7.94c9.12,3.1,13.43,8.06,12.95,14.9-.57,3.17-2.04,5.9-4.4,8.18-5.29,3.91-16.12,1.63-32.49-6.84-16.37-8.22-32.81-8.51-49.34-.86ZM1408.18,186.91c-9.28,4.23-16.16,12.05-20.64,23.45-5.78,16.85-5.17,31.59,1.83,44.21,5.78,9.28,14.74,16.98,26.87,23.08,11.15,5.29,21.9,7.9,32.24,7.82,10.75-.73,17.5-6.23,20.27-16.49,3.09-14,3.3-28.54.61-43.6-2.93-13.6-11.03-25.04-24.3-34.32-11.97-7.65-24.26-9.04-36.88-4.15Z"/>
  </g>
  <g>
    <path class="cls-3" d="M87.73,29.75v57.75h58.45v29.75h-58.45v116.9H28.93V0h146.3v29.75h-87.5Z"/>
    <path class="cls-3" d="M203.93,234.15V0h146.3v29.75h-87.5v57.75h58.45v29.75h-58.45v87.15h87.5v29.75h-146.3Z"/>
    <path class="cls-3" d="M407.98,234.15V0h58.8v204.4h87.5v29.75h-146.3Z"/>
    <path class="cls-3" d="M582.98,234.15V0h58.8v234.15h-58.8Z"/>
    <path class="cls-3" d="M787.03,234.15v-87.5h-28.7v87.5h-58.8v-29.75h29.05v-58.45h29.05v-28.7h-29.05V29.75h-29.05V0h87.85v87.5h28.7V0h58.8v29.75h-29.05v58.45h-29.05v28.7h29.05v87.5h29.05v29.75h-87.85Z"/>
  </g>
  <g class="cls-4">
    <g>
      <path class="cls-2" d="M17.83,356.82c-6.68-1.14-11.64-4.07-14.9-8.79-2.52-4.72-3.42-9.85-2.69-15.39,1.38-6.02,5.25-10.99,11.6-14.9l17.22-9.04c6.11-3.01,11.8-4.64,17.1-4.88l33.83,5.25c8.39.41,14.94-2.24,19.66-7.94,5.78-7.57,9.89-14.86,12.33-21.86,2.12-7.57-1.71-13.27-11.48-17.1-8.55-3.34-17.1-9.81-25.65-19.42-5.46-6.35-7.41-12.05-5.86-17.1,2.2-4.97,5.62-8.87,10.26-11.72,3.83-1.71,7.57-2.03,11.24-.98,3.58,1.55,6.43,4.03,8.55,7.45,1.38,2.61.85,9.12-1.59,19.54-1.22,8.31,1.87,14.13,9.28,17.46,5.7,1.63,10.14-.16,13.31-5.37,1.14-2.6,2.44-10.58,3.91-23.94.65-4.8,2.24-10.67,4.76-17.59l5.98-19.79c2.03-6.51,5.09-11.64,9.16-15.39l12.21-8.43,16.24-8.55c8.79-3.18,17.42-4.48,25.89-3.91,8.06,1.06,13.47,5.33,16.24,12.82,4.8,15.39,4.4,29.27-1.22,41.65-7.17,14.82-13.8,24.96-19.91,30.41l-14.78,11.24c-7.82,6.11-13.72,9.97-17.71,11.6l-22.47,6.11c-5.54,2.28-10.26,7.17-14.17,14.66l-11.97,18.2c-1.79,2.61-2.81,4.89-3.05,6.84.24,2.36,1.95,4.36,5.13,5.98,5.21,2.04,13.88,3.26,26.01,3.66,8.47.33,16.73,1.63,24.79,3.91,11.89,3.26,22.92,3.83,33.1,1.71l10.14-2.32c1.14.08,2.03.33,2.69.73.65.81.94,2.12.85,3.91-.65,6.51-3.3,12.62-7.94,18.32-4.72,5.13-11.11,6.84-19.17,5.13l-29.07-5.86-28.94-4.76c-13.19-3.5-23.37-5.33-30.53-5.5-7.65.16-14.78,2.36-21.37,6.59l-10.87,7.69c-5.29,3.34-11.16,5.78-17.59,7.33-11.32,2.28-20.84,3.05-28.58,2.32ZM60.09,325.92c-14.98-4.8-28.46-5.37-40.42-1.71-6.52,2.44-10.06,6.27-10.63,11.48.24,5.29,3.22,9.4,8.92,12.33,11.48,4.64,25.53,1.95,42.13-8.06,4.31-2.85,6.8-5.37,7.45-7.57.16-2.44-2.32-4.6-7.45-6.47ZM193.21,217.96c7.57-14.74,8.43-28.94,2.56-42.62-2.61-5.13-5.74-8.3-9.4-9.53-3.75-.73-7.57.33-11.48,3.18-5.86,4.89-10.79,11.93-14.78,21.13l-7.94,26.87-12.58,29.31c-1.22,4.32-1.3,7.53-.24,9.65,1.47,1.87,4.07,2.61,7.82,2.2,8.39-1.55,17.06-6.51,26.01-14.9,8.71-8.47,15.39-16.89,20.03-25.28Z"/>
      <path class="cls-2" d="M273.57,345.22c8.14-2.03,13.88-7.08,17.22-15.14,3.99-11.07,4.72-23.49,2.2-37.25l-5.86-34.56-4.15-25.04c-.24-4.07-.04-7.9.61-11.48,1.3-5.05,3.83-10.42,7.57-16.12,2.6-3.74,4.07-6.31,4.4-7.69-.08-1.79-2-3.34-5.74-4.64l-23.08-7.94c-7.57-3.34-13.76-4.84-18.56-4.52-4.56.65-10.38,2.65-17.46,5.98-2.69,1.22-4.52,1.87-5.5,1.95-.49-.16-.73-.57-.73-1.22l1.1-3.18,9.65-18.2c4.07-5.7,9.2-8.75,15.39-9.16,6.19,0,13.31,1.51,21.37,4.52l20.15,8.92,24.3,6.47c2.6.81,4.6,1.59,5.98,2.32,1.3,1.06,10,1.63,9.19,3.09l-21.16,13.76c-3.5,5.37-4.23,21.62-2.2,48.73l5.74,31.75c3.09,11.81,4.11,22.55,3.05,32.24-1.3,8.88-4.89,16.61-10.75,23.21l-10.87,10.26c-6.19,5.05-12.05,8.51-17.59,10.38"/>
      <path class="cls-2" d="M423.18,336.06l-24.55-7.94c-9.28-2.69-19.26-1.59-29.92,3.3l-6.11,3.18h-.37c-.08-.08-.12-.24-.12-.49l1.59-2.56,9.28-13.19,10.99-10.38c5.37-4.64,9.24-9.16,11.6-13.56,1.3-2.93,1.75-5.5,1.34-7.69-.98-1.95-2.85-3.3-5.62-4.03l-35.3-4.52c-11.72-7.16-20.6-16.24-26.62-27.24-6.76-14.25-7.41-32.61-1.95-55.08,3.26-10.99,12.42-22.55,27.48-34.68,9.69-7.16,21.33-8.96,34.93-5.37,6.27,1.87,12.29,5.54,18.08,10.99l11.6,11.6c4.72,5.46,8.02,11.72,9.89,18.81l4.52,23.45c.57,5.94,0,11.44-1.71,16.49l-9.16,21.98c-.49,3.66.08,6.35,1.71,8.06,1.79,1.14,3.99.9,6.6-.73,3.09-2.77,6.15-8.79,9.16-18.08,1.38-3.91,5.9-9.44,13.56-16.61,4.31-4.4,8.47-13.23,12.46-26.5,1.38-4.23,4.52-10.67,9.4-19.3l10.87-23.08c4.23-6.76,9.57-8.51,16-5.25l22.72,15.02c7.73,3.83,11.15,8.43,10.26,13.8l-9.04,21.37c-2.52,5.78-4.07,13.27-4.64,22.47l-2.08,33.22,2.81,23.82,4.89,21.49c2.28,5.37,5.58,7.98,9.89,7.82,2.77-.49,6.92-2.16,12.46-5.01,2.2-1.06,3.66-1.55,4.4-1.47.65.57.28,2.2-1.1,4.88l-13.92,20.76c-5.29,6.19-10.63,7.74-16,4.64-5.21-3.74-9.89-9.69-14.04-17.83l-7.33-20.76c-3.34-11.8-5.13-22.11-5.37-30.9l1.1-24.06c.41-14.17,2.08-25.04,5.01-32.61,3.91-9.93,4.89-17.14,2.93-21.62-2.28-3.5-5.42-5.9-9.4-7.21-6.27-1.06-11.24,2.2-14.9,9.77l-12.09,21.86c-2.28,4.15-3.5,8.22-3.66,12.21,0,2.44.9,7.33,2.69,14.66.65,3.58-3.26,11.48-11.72,23.69-7.74,12.54-9.65,28.94-5.74,49.22l6.84,19.79c-1.22,4.4-4.15,10.34-8.79,17.83-1.95,3.01-3.38,4.56-4.27,4.64-.57-.33-1.47-2.2-2.69-5.62-3.42-8.71-9.69-14.53-18.81-17.46ZM394.24,275.48c10.01-2.03,16.08-8.47,18.2-19.3,2.77-17.34,2.44-32.53-.98-45.55-3.91-12.62-11.81-22.92-23.69-30.9-11.24-6.84-22.8-7.98-34.68-3.42-8.39,3.83-14.29,11.24-17.71,22.23-5.05,17.67-5.01,33.02.12,46.04,5.05,11.72,13.43,20.32,25.16,25.77,11.48,4.89,22.67,6.59,33.59,5.13ZM444.92,281.83c-.98-4.56-2.48-7.61-4.52-9.16-2.12-1.06-5.09-.77-8.92.85-6.92,3.58-15.35,9.4-25.28,17.46-3.42,2.93-5.46,5.46-6.11,7.57-.33,2.44,1.22,5.01,4.64,7.69,7.08,4.97,14.49,8.1,22.23,9.4,7.16.65,12.33-2.03,15.51-8.06,3.09-7.49,3.91-16.08,2.44-25.77Z"/>
      <path class="cls-2" d="M620.91,333.13c-5.78-3.09-12.58-4.72-20.4-4.88-6.92.24-13.6,1.87-20.03,4.88l-7.08,3.91h-.37c-.16-.08-.24-.24-.24-.49l1.47-3.54,11.6-18.93c4.15-4.48,8.96-6.72,14.41-6.72l20.15,4.89c6.27,1.22,10.34-.37,12.21-4.76,1.46-5.13,1.46-11.03,0-17.71-1.95-6.19-5.78-9.4-11.48-9.65-18.56.41-30.25-1.02-35.05-4.27-11.07-8.38-19.09-16.45-24.06-24.18-8.79-15.79-9.81-33.83-3.05-54.1,5.7-15.14,20.03-27.4,42.99-36.76,22.06-8.14,44.41-8.02,67.05.37,15.06,6.19,26.46,11.93,34.2,17.22,3.74,2.77,8.38,7.41,13.92,13.92l15.51,18.2c2.85,4.72,5.62,11.2,8.31,19.42l5.74,20.76c1.63,10.67.77,21.94-2.57,33.83l-8.55,21.49c-3.91,8.47-7.98,15.06-12.21,19.79l-26.26,19.3c-8.39,5.29-20.76,5.09-37.13-.61-5.86-1.95-10.54-1.79-14.04.49-2.44,2.2-4.52,5.37-6.23,9.53-.9,2.36-1.51,3.66-1.83,3.91-.33,0-.98-1.43-1.96-4.27-3.42-9.61-8.43-16.61-15.02-21.01ZM716.05,321.65c4.89-4.64,9.45-13.76,13.68-27.36,3.83-12.62,2.89-26.46-2.81-41.52-4.56-12.21-7.86-19.91-9.89-23.08l-14.78-16.49-14.04-13.68-19.42-11.72-21.49-8.79c-10.59-3.18-20.11-5.05-28.58-5.62-6.19-.16-12.34.61-18.44,2.32l-17.22,6.23c-7.9,3.83-13.31,9.57-16.24,17.22-5.86,17.26-6.15,31.47-.85,42.62,6.27,11.48,13.15,19.58,20.64,24.3,8.3,4.64,16.98,7.37,26.01,8.18,5.62.16,8.87-1.67,9.77-5.5l.49-9.89c.08-.32,2.64-5.74,7.69-16.24l5.5-32.12c.81-3.5,1.79-5.82,2.93-6.96.65-.41,1.3-.37,1.95.12.49.81.89,1.95,1.22,3.42l1.22,35.05c4.4,12.46,6.23,19.46,5.5,21.01l-9.53,14.66c-1.55,3.66-2.4,7.49-2.56,11.48l2.56,17.46c1.87,7.98,5.82,13.27,11.85,15.88l27.97,6.96c7.49,1.46,13.92,1.67,19.3.61,6.68-1.55,12.54-4.4,17.59-8.55Z"/>
      <path class="cls-2" d="M840.25,346.32c-12.13-6.92-26.91-9.57-44.33-7.94-3.91.24-6.55-.08-7.94-.98-.98-1.22-.77-3.21.61-5.98,2.77-4.23,11.85-10.99,27.23-20.27,4.97-3.25,8.18-7.25,9.65-11.97,1.06-5.29-.73-9.57-5.37-12.82l-21.86-6.35c-4.97-1.79-10.14-5.62-15.51-11.48l-13.43-12.09c-7.82-6.27-13.31-14.82-16.49-25.65-4.8-17.1-4.44-32.04,1.1-44.82,4.15-8.71,10.5-15.92,19.05-21.62,11.97-7.49,24.75-9,38.35-4.52,10.91,3.99,18.52,8.55,22.84,13.68,2.2,2.77,5.45,9.49,9.77,20.15,1.3,2.77,2.52,4.64,3.66,5.62,1.55.49,3.3-.49,5.25-2.93l9.53-17.1c2.93-4.8,6.55-9.08,10.87-12.82,5.29-4.31,10.38-7.45,15.27-9.4,5.78-1.87,10.71-1.18,14.78,2.08l20.03,21.86c7.73,3.5,12.05,5.58,12.95,6.23,3.34,3.42,3.46,7.45.37,12.09l-19.66,17.46c-4.8,5.54-4.76,10.55.12,15.02l17.46,9.89c7.33,4.64,12.54,11.32,15.63,20.03,4.07,13.03,2.85,25.65-3.66,37.86-3.66,6.43-9.45,13.15-17.34,20.15l-14.78,10.62-16.61,7.82-20.76,13.31c-8.96,5.37-21.21,3.66-36.76-5.13ZM831.58,228.46c-1.14-9.04-3.34-17.14-6.59-24.3l-9.65-16.37c-4.8-6.27-10.42-10.71-16.85-13.31-7.17-2.52-14.21-3.22-21.13-2.08-7.57,1.79-12.99,6.47-16.24,14.04-6.43,17.67-5.9,34.73,1.59,51.17,6.02,11.97,15.83,21.98,29.43,30.04,10.91,6.27,19.54,10.42,25.89,12.46,3.74.98,6.84,1.06,9.28.24,2.69-1.47,4.48-4.48,5.37-9.04,1.38-8.96,1.02-23.24-1.1-42.87ZM905.59,220.4c4.64-7.16,5.45-14.08,2.44-20.76-4.48-8.22-10.79-14.7-18.93-19.42-7.82-3.91-14.62-2.52-20.4,4.15-6.43,8.3-10.83,17.59-13.19,27.85l-3.54,26.01-7.57,31.75c-.24,3.83,0,6.72.73,8.67.49.65,1.02,1.02,1.59,1.1.73-.32,1.55-1.14,2.44-2.44l7.45-16.37c3.42-4.8,7.69-6.76,12.82-5.86,5.54,1.79,9.36,5.5,11.48,11.11,2.44,9.2-1.95,15.75-13.19,19.66-18.97,5.62-29.76,9.49-32.36,11.6-5.54,5.37-7,10.75-4.4,16.12,2.6,3.99,8.51,7.78,17.71,11.36,22.31,8.71,39.24,10.46,50.81,5.25,9.61-4.97,18.16-13.23,25.65-24.79,6.02-10.42,5.98-21.82-.12-34.2-3.75-6.84-8.51-12.01-14.29-15.51-4.32-2.28-11.11-4.56-20.4-6.84-3.5-.98-5.74-1.91-6.72-2.81-.65-1.22.37-3.13,3.05-5.74l18.93-19.91Z"/>
      <path class="cls-2" d="M974.23,356.82c-6.68-1.14-25.17-3.25-28.43-7.97-2.53-4.72-3.42-9.85-2.69-15.39,1.38-6.02,5.25-10.99,11.6-14.9l17.22-9.04c6.11-3.01,11.8-4.64,17.1-4.88l33.83,5.25c8.38.41,14.94-2.24,19.66-7.94,5.78-7.57,9.89-14.86,12.33-21.86,2.12-7.57-1.71-13.27-11.48-17.1-8.55-3.34-17.1-9.81-25.65-19.42-5.46-6.35-7.41-12.05-5.86-17.1,2.2-4.97,5.62-8.87,10.26-11.72,3.83-1.71,7.57-2.03,11.24-.98,3.58,1.55,6.43,4.03,8.55,7.45,1.38,2.61.85,9.12-1.59,19.54-1.22,8.31,1.87,14.13,9.28,17.46,5.7,1.63,10.14-.16,13.31-5.37,1.14-2.6,2.44-10.58,3.91-23.94.65-4.8,2.24-10.67,4.76-17.59l5.98-19.79c2.03-6.51,5.09-11.64,9.16-15.39l12.21-8.43,16.24-8.55c8.79-3.18,17.42-4.48,25.89-3.91,8.06,1.06,13.47,5.33,16.24,12.82,4.8,15.39,4.4,29.27-1.22,41.65-7.17,14.82-13.8,24.96-19.91,30.41l-14.78,11.24c-7.82,6.11-13.72,9.97-17.71,11.6l-22.47,6.11c-5.54,2.28-10.26,7.17-14.17,14.66l-11.97,18.2c-1.79,2.61-2.81,4.89-3.05,6.84.24,2.36,1.95,4.36,5.13,5.98,5.21,2.04,13.88,3.26,26.01,3.66,8.47.33,16.73,1.63,24.79,3.91,11.89,3.26,22.92,3.83,33.1,1.71l10.14-2.32c1.14.08,2.03.33,2.69.73.65.81.93,2.12.85,3.91-.65,6.51-3.3,12.62-7.94,18.32-4.72,5.13-11.11,6.84-19.17,5.13l-29.07-5.86-28.95-4.76c-13.19-3.5-23.37-5.33-30.53-5.5-7.65.16-14.78,2.36-21.37,6.59l-10.87,7.69c-5.29,3.34-11.16,5.78-17.59,7.33-11.32,2.28-7.31,2.23-15.05,1.5ZM1002.95,326.74c-14.98-4.8-14.93-6.19-26.9-2.53-6.51,2.44-10.06,6.27-10.62,11.48.24,5.29,3.21,9.4,8.92,12.33,11.48,4.64,12,2.78,28.61-7.24,4.31-2.85,6.8-5.37,7.45-7.57.16-2.44-2.32-4.6-7.45-6.47ZM1136.08,218.78c7.57-14.74,8.43-28.94,2.56-42.62-2.61-5.13-5.74-8.3-9.4-9.53-3.75-.73-7.57.33-11.48,3.18-5.86,4.89-10.79,11.93-14.78,21.13l-7.94,26.87-12.58,29.31c-1.22,4.32-1.3,7.53-.24,9.65,1.46,1.87,4.07,2.61,7.82,2.2,8.38-1.55,17.06-6.51,26.01-14.9,8.71-8.47,15.39-16.89,20.03-25.28Z"/>
      <path class="cls-2" d="M1216.31,337.37c-21.01-9.28-35.7-23.37-44.09-42.26-6.76-17.18-7.41-35.62-1.95-55.32,2.93-9.44,10.22-20.72,21.86-33.83,7-7.65,13.31-13.03,18.93-16.12,10.91-5.37,16.98-8.63,18.2-9.77l11.72-17.83c1.38-2.03,2.57-3.46,3.54-4.27.49-.16.93-.2,1.34-.12.49.57.85,1.47,1.1,2.69l-.85,21.86c0,3.1.41,5.09,1.22,5.98,1.06.41,2.73-.12,5.01-1.59l22.23-15.88c8.47-5.62,15.51-8.1,21.13-7.45,1.71.41,10.18,4.36,25.4,11.85l20.52,8.06c5.45,2.85,11.28,7.69,17.46,14.53,7.33,8.22,12.05,14.98,14.17,20.27,3.58,10.18,4.07,21.82,1.47,34.93l-7.45,22.47-10.01,18.93-15.27,19.42c-5.7,6.11-12.91,11.11-21.62,15.02-7.25,3.09-12.91,6.47-16.98,10.14l-10.87,10.62c-4.72,3.42-10.06,5.29-16,5.62-12.29-.08-32.36-6.06-60.21-17.95ZM1228.04,242.84c-.98-4.31-3.38-9.65-7.21-16-3.01-5.05-3.46-9.61-1.34-13.68l10.01-16.49c.81-2.77.73-4.97-.24-6.59-1.38-1.3-3.46-1.79-6.23-1.47-7,1.55-13.68,6.31-20.03,14.29l-12.7,20.15c-6.27,11.64-8.79,23.69-7.57,36.15.98,7,2.73,14.04,5.25,21.13,2.6,6.35,5.86,11.85,9.77,16.49,11.48,12.62,26.38,22.27,44.7,28.94,23.61,8.22,43.03,8.71,58.26,1.47,7.57-3.99,15.1-9.77,22.59-17.34,5.05-5.21,9.2-10.79,12.46-16.73l8.67-23.2c4.48-16.61,4.35-30.25-.37-40.91-3.83-7.41-10.5-15.63-20.03-24.67-6.19-5.37-14.45-9.53-24.79-12.46l-22.84-5.62c-19.87-2.44-30.94,2.65-33.22,15.27-.08,2.77,1.34,6.84,4.27,12.21,1.63,3.42,1.34,6.96-.85,10.63l-8.92,11.97c-2.61,4.72-3.79,9.89-3.54,15.51l5.37,36.64c-.41,5.21-1.63,8.26-3.66,9.16-2.2.08-4.36-2.03-6.47-6.35l-1.34-48.49Z"/>
      <path class="cls-2" d="M1426.74,345.55c-3.58,1.71-5.9,2.56-6.96,2.56-.41-.16-.61-.53-.61-1.1.24-.73.69-1.67,1.34-2.81l13.56-16.61,11.48-10.62c5.13-4.64,8.75-9,10.87-13.07,1.14-2.85,1.42-5.25.86-7.21-1.06-1.87-3.05-3.3-5.98-4.27l-28.21-3.05c-5.05-1.38-10.55-4.27-16.49-8.67l-11.72-8.67c-5.78-4.48-9.97-9.57-12.58-15.27-3.01-7.49-5.01-15.88-5.98-25.16-.41-5.29-.12-10.3.86-15.02,1.54-6.11,4.44-12.58,8.67-19.42,4.96-7.41,10.42-13.96,16.37-19.66,6.19-5.86,12.29-9.97,18.32-12.33,3.99-1.3,8.1-1.91,12.33-1.83,5.45.49,12.05,2.32,19.79,5.5,7.98,3.34,13.84,7.41,17.59,12.21l10.38,16.85c2.28,2.85,4.48,4.52,6.6,5.01,2.12.08,4.27-1.02,6.47-3.3l17.71-26.62c8.14-9.53,16.2-12.66,24.18-9.4,4.48,2.28,8.83,6.15,13.07,11.6,3.99,5.46,6.88,11.44,8.67,17.95l4.88,24.67c.81,3.42,1.63,5.82,2.44,7.21.57.49,1.18.65,1.83.49.65-.49,1.38-1.3,2.2-2.44l12.21-22.59,11.24-16.24c6.19-10.09,10.91-16.69,14.17-19.79,5.05-4.31,10.54-3.99,16.49.98l23.08,15.14c6.35,3.75,8.96,8.55,7.82,14.41l-8.3,21.25c-2.04,6.19-3.66,14.37-4.89,24.55-2.52,22.07-2.56,40.63-.12,55.69,3.18,19.22,8.67,29.15,16.49,29.8,3.26-.08,7.12-1.06,11.6-2.93,2.52-1.06,4.15-1.59,4.89-1.59.32.16.45.57.37,1.22l-1.47,3.3c-5.13,9.04-10.14,16.16-15.02,21.37-5.46,5.29-11.56,6.07-18.32,2.32-6.76-4.4-11.81-10.95-15.14-19.66l-8.55-28.7c-2.12-8.96-2.49-22.8-1.1-41.52l2.69-26.14,7.08-20.76c1.63-6.92.37-12.38-3.79-16.37-3.5-2.6-7.53-4.07-12.09-4.4-4.88.24-9.12,2.16-12.7,5.74l-10.38,16-12.21,20.27c-2.2,5.46-4.32,13.8-6.35,25.04l-3.91,26.01-1.22,54.71c-2.61,6.84-7,11.64-13.19,14.41-2.93.98-5.46,1.02-7.57.12-2.2-1.55-3.5-4.4-3.91-8.55l3.66-27.85.61-29.8-1.46-69c-.9-12.13-4.27-21.09-10.14-26.87-7.25-6.11-13.96-6.35-20.15-.73-4.32,4.64-8.55,10.99-12.7,19.05-2.52,5.21-4.4,13.23-5.62,24.06l-8.18,32.73c-.81,4.4-.37,7.37,1.34,8.92,2.12,1.06,4.6.45,7.45-1.83,1.06-.98,4.31-8.39,9.77-22.23,2.6-5.37,6.39-8.1,11.36-8.18,6.02.73,10.79,3.91,14.29,9.53,3.26,6.59,1.42,12.62-5.5,18.08-5.7,3.91-14.45,7.57-26.26,10.99-7.49,2.12-13.31,4.89-17.46,8.3-6.27,5.37-11.72,11.4-16.37,18.07-1.87,3.01-2.65,5.46-2.32,7.33.81,2.04,3.3,3.87,7.45,5.5l33.71,7.94c9.12,3.1,13.43,8.06,12.95,14.9-.57,3.17-2.04,5.9-4.4,8.18-5.29,3.91-16.12,1.63-32.49-6.84-16.37-8.22-32.81-8.51-49.34-.86ZM1408.18,186.91c-9.28,4.23-16.16,12.05-20.64,23.45-5.78,16.85-5.17,31.59,1.83,44.21,5.78,9.28,14.74,16.98,26.87,23.08,11.15,5.29,21.9,7.9,32.24,7.82,10.75-.73,17.5-6.23,20.27-16.49,3.09-14,3.3-28.54.61-43.6-2.93-13.6-11.03-25.04-24.3-34.32-11.97-7.65-24.26-9.04-36.88-4.15Z"/>
    </g>
  </g>
</svg>